<?xml version="1.0" encoding="UTF-8" standalone="no"?><svg xmlns="http://www.w3.org/2000/svg" xmlns:xlink="http://www.w3.org/1999/xlink" contentScriptType="application/ecmascript" contentStyleType="text/css" height="601px" preserveAspectRatio="none" style="width:460px;height:601px;" version="1.1" viewBox="0 0 460 601" width="460px" zoomAndPan="magnify"><defs><filter height="300%" id="f1dq75fr94kijy" width="300%" x="-1" y="-1"><feGaussianBlur result="blurOut" stdDeviation="2.0"/><feColorMatrix in="blurOut" result="blurOut2" type="matrix" values="0 0 0 0 0 0 0 0 0 0 0 0 0 0 0 0 0 0 .4 0"/><feOffset dx="4.0" dy="4.0" in="blurOut2" result="blurOut3"/><feBlend in="SourceGraphic" in2="blurOut3" mode="normal"/></filter></defs><g><!--cluster ms1--><rect fill="#FFFFFF" filter="url(#f1dq75fr94kijy)" height="322" style="stroke: #000000; stroke-width: 1.5;" width="114" x="105.5" y="170"/><rect fill="#FFFFFF" height="10" style="stroke: #000000; stroke-width: 1.5;" width="15" x="199.5" y="175"/><rect fill="#FFFFFF" height="2" style="stroke: #000000; stroke-width: 1.5;" width="4" x="197.5" y="177"/><rect fill="#FFFFFF" height="2" style="stroke: #000000; stroke-width: 1.5;" width="4" x="197.5" y="181"/><text fill="#000000" font-family="sans-serif" font-size="14" font-weight="bold" lengthAdjust="spacingAndGlyphs" textLength="23" x="151" y="195.9951">ms</text><text fill="#000000" font-family="sans-serif" font-size="14" font-weight="bold" lengthAdjust="spacingAndGlyphs" textLength="67" x="129" y="212.292">domain2</text><text fill="#000000" font-family="sans-serif" font-size="14" font-weight="bold" lengthAdjust="spacingAndGlyphs" textLength="0" x="165" y="228.5889"/><!--cluster ms2--><rect fill="#FFFFFF" filter="url(#f1dq75fr94kijy)" height="322" style="stroke: #000000; stroke-width: 1.5;" width="114" x="335.5" y="170"/><rect fill="#FFFFFF" height="10" style="stroke: #000000; stroke-width: 1.5;" width="15" x="429.5" y="175"/><rect fill="#FFFFFF" height="2" style="stroke: #000000; stroke-width: 1.5;" width="4" x="427.5" y="177"/><rect fill="#FFFFFF" height="2" style="stroke: #000000; stroke-width: 1.5;" width="4" x="427.5" y="181"/><text fill="#000000" font-family="sans-serif" font-size="14" font-weight="bold" lengthAdjust="spacingAndGlyphs" textLength="23" x="381" y="195.9951">ms</text><text fill="#000000" font-family="sans-serif" font-size="14" font-weight="bold" lengthAdjust="spacingAndGlyphs" textLength="67" x="359" y="212.292">domain1</text><text fill="#000000" font-family="sans-serif" font-size="14" font-weight="bold" lengthAdjust="spacingAndGlyphs" textLength="0" x="395" y="228.5889"/><!--entity api2--><rect fill="#FEFECE" filter="url(#f1dq75fr94kijy)" height="36.2969" style="stroke: #A80036; stroke-width: 1.5;" width="49" x="127" y="229"/><rect fill="#FEFECE" height="5" style="stroke: #A80036; stroke-width: 1.5;" width="10" x="122" y="234"/><rect fill="#FEFECE" height="5" style="stroke: #A80036; stroke-width: 1.5;" width="10" x="122" y="255.2969"/><text fill="#000000" font-family="sans-serif" font-size="14" lengthAdjust="spacingAndGlyphs" textLength="29" x="137" y="251.9951">api2</text><!--entity service2--><rect fill="#FEFECE" filter="url(#f1dq75fr94kijy)" height="36.2969" style="stroke: #A80036; stroke-width: 1.5;" width="78" x="128.5" y="338.5"/><rect fill="#FEFECE" height="5" style="stroke: #A80036; stroke-width: 1.5;" width="10" x="123.5" y="343.5"/><rect fill="#FEFECE" height="5" style="stroke: #A80036; stroke-width: 1.5;" width="10" x="123.5" y="364.7969"/><text fill="#000000" font-family="sans-serif" font-size="14" lengthAdjust="spacingAndGlyphs" textLength="58" x="138.5" y="361.4951">service2</text><!--entity repository2--><rect fill="#FEFECE" filter="url(#f1dq75fr94kijy)" height="36.2969" style="stroke: #A80036; stroke-width: 1.5;" width="98" x="113.5" y="448"/><rect fill="#FEFECE" height="5" style="stroke: #A80036; stroke-width: 1.5;" width="10" x="108.5" y="453"/><rect fill="#FEFECE" height="5" style="stroke: #A80036; stroke-width: 1.5;" width="10" x="108.5" y="474.2969"/><text fill="#000000" font-family="sans-serif" font-size="14" lengthAdjust="spacingAndGlyphs" textLength="78" x="123.5" y="470.9951">repository2</text><!--entity api1--><rect fill="#FEFECE" filter="url(#f1dq75fr94kijy)" height="36.2969" style="stroke: #A80036; stroke-width: 1.5;" width="49" x="350" y="229"/><rect fill="#FEFECE" height="5" style="stroke: #A80036; stroke-width: 1.5;" width="10" x="345" y="234"/><rect fill="#FEFECE" height="5" style="stroke: #A80036; stroke-width: 1.5;" width="10" x="345" y="255.2969"/><text fill="#000000" font-family="sans-serif" font-size="14" lengthAdjust="spacingAndGlyphs" textLength="29" x="360" y="251.9951">api1</text><!--entity service1--><rect fill="#FEFECE" filter="url(#f1dq75fr94kijy)" height="36.2969" style="stroke: #A80036; stroke-width: 1.5;" width="78" x="343.5" y="338.5"/><rect fill="#FEFECE" height="5" style="stroke: #A80036; stroke-width: 1.5;" width="10" x="338.5" y="343.5"/><rect fill="#FEFECE" height="5" style="stroke: #A80036; stroke-width: 1.5;" width="10" x="338.5" y="364.7969"/><text fill="#000000" font-family="sans-serif" font-size="14" lengthAdjust="spacingAndGlyphs" textLength="58" x="353.5" y="361.4951">service1</text><!--entity repository1--><rect fill="#FEFECE" filter="url(#f1dq75fr94kijy)" height="36.2969" style="stroke: #A80036; stroke-width: 1.5;" width="98" x="343.5" y="448"/><rect fill="#FEFECE" height="5" style="stroke: #A80036; stroke-width: 1.5;" width="10" x="338.5" y="453"/><rect fill="#FEFECE" height="5" style="stroke: #A80036; stroke-width: 1.5;" width="10" x="338.5" y="474.2969"/><text fill="#000000" font-family="sans-serif" font-size="14" lengthAdjust="spacingAndGlyphs" textLength="78" x="353.5" y="470.9951">repository1</text><!--entity ext--><path d="M14.4471,334.3323 C17.1041,327.9609 22.4908,328.1757 26.229,333.2161 C29.4562,327.2635 35.3027,326.8648 39.1923,332.4732 C43.2551,327.6415 46.8538,327.3329 49.9845,333.3964 C54.2527,326.9299 58.2339,326.8444 62.5185,333.3806 C66.2035,328.6454 71.5717,328.4614 74.3877,334.3513 C78.3101,327.927 83.0858,328.3928 87.1812,334.17 C92.4199,337.0937 93.4206,342.9672 88.004,346.5964 C94.3454,347.1322 96.3673,352.3055 92.0996,357.0127 C97.5789,361.8931 96.2447,366.7016 89.2883,368.5525 C93.4585,374.1643 93.1313,378.7928 85.4354,380.6142 C82.2129,386.7794 77.8824,386.3001 74.1485,381.1233 C71.5622,386.704 67.0671,387.7954 63.322,382.251 C60.1293,387.8647 55.6174,388.5451 51.4589,383.3068 C46.93,389.6773 42.2572,390.2527 37.7857,383.2481 C33.8647,388.065 30.5676,388.1652 26.9792,382.892 C22.5938,388.0754 18.1029,385.9494 16.0713,380.4816 C9.2871,379.4289 6.631,374.3899 10.7145,368.4847 C4.1558,366.6938 1.5451,362.64 5.8236,356.4462 C1.581,351.1755 4.0236,347.6992 9.5734,345.9153 C4.8733,339.2646 7.7188,336.1744 14.4471,334.3323 " fill="#FEFECE" style="stroke: #000000; stroke-width: 1.5;"/><text fill="#000000" font-family="sans-serif" font-size="14" lengthAdjust="spacingAndGlyphs" textLength="55" x="21" y="352.9951">external</text><text fill="#000000" font-family="sans-serif" font-size="14" lengthAdjust="spacingAndGlyphs" textLength="57" x="21" y="369.292">services</text><!--entity q--><path d="M252,453 L303,453 C308,453 308,466.1484 308,466.1484 C308,466.1484 308,479.2969 303,479.2969 L252,479.2969 C247,479.2969 247,466.1484 247,466.1484 C247,466.1484 247,453 252,453 " fill="#FEFECE" filter="url(#f1dq75fr94kijy)" style="stroke: #A80036; stroke-width: 1.5;"/><path d="M303,453 C298,453 298,466.1484 298,466.1484 C298,479.2969 303,479.2969 303,479.2969 " fill="none" style="stroke: #A80036; stroke-width: 1.5;"/><text fill="#000000" font-family="sans-serif" font-size="14" lengthAdjust="spacingAndGlyphs" textLength="41" x="252" y="470.9951">&gt; q &gt;</text><!--entity db2--><path d="M139,554 C139,544 162.5,544 162.5,544 C162.5,544 186,544 186,554 L186,579.2969 C186,589.2969 162.5,589.2969 162.5,589.2969 C162.5,589.2969 139,589.2969 139,579.2969 L139,554 " fill="#FEFECE" filter="url(#f1dq75fr94kijy)" style="stroke: #000000; stroke-width: 1.5;"/><path d="M139,554 C139,564 162.5,564 162.5,564 C162.5,564 186,564 186,554 " fill="none" style="stroke: #000000; stroke-width: 1.5;"/><text fill="#000000" font-family="sans-serif" font-size="14" lengthAdjust="spacingAndGlyphs" textLength="27" x="149" y="580.9951">db2</text><!--entity db1--><path d="M369,554 C369,544 392.5,544 392.5,544 C392.5,544 416,544 416,554 L416,579.2969 C416,589.2969 392.5,589.2969 392.5,589.2969 C392.5,589.2969 369,589.2969 369,579.2969 L369,554 " fill="#FEFECE" filter="url(#f1dq75fr94kijy)" style="stroke: #000000; stroke-width: 1.5;"/><path d="M369,554 C369,564 392.5,564 392.5,564 C392.5,564 416,564 416,554 " fill="none" style="stroke: #000000; stroke-width: 1.5;"/><text fill="#000000" font-family="sans-serif" font-size="14" lengthAdjust="spacingAndGlyphs" textLength="27" x="379" y="580.9951">db1</text><!--entity api--><rect fill="#FEFECE" filter="url(#f1dq75fr94kijy)" height="36.2969" style="stroke: #A80036; stroke-width: 1.5;" width="104" x="270.5" y="126"/><rect fill="#FEFECE" height="5" style="stroke: #A80036; stroke-width: 1.5;" width="10" x="265.5" y="131"/><rect fill="#FEFECE" height="5" style="stroke: #A80036; stroke-width: 1.5;" width="10" x="265.5" y="152.2969"/><text fill="#000000" font-family="sans-serif" font-size="14" lengthAdjust="spacingAndGlyphs" textLength="84" x="280.5" y="148.9951">API Gateway</text><!--entity Client--><ellipse cx="322.5" cy="37" fill="#FEFECE" filter="url(#f1dq75fr94kijy)" rx="8" ry="8" style="stroke: #A80036; stroke-width: 2.0;"/><text fill="#000000" font-family="sans-serif" font-size="14" lengthAdjust="spacingAndGlyphs" textLength="39" x="303" y="66.9951">Client</text><!--link api2 to service2--><path d="M154.1421,265.0817 C156.875,283.7852 161.1519,313.055 164.1273,333.4181 " fill="none" id="api2-&gt;service2" style="stroke: #A80036; stroke-width: 1.0;"/><polygon fill="#A80036" points="164.854,338.3914,167.5106,328.9076,164.131,333.4439,159.5946,330.0644,164.854,338.3914" style="stroke: #A80036; stroke-width: 1.0;"/><!--link service2 to repository2--><path d="M166.6744,374.5817 C165.8239,393.206 164.4951,422.3072 163.5658,442.6588 " fill="none" id="service2-&gt;repository2" style="stroke: #A80036; stroke-width: 1.0;"/><polygon fill="#A80036" points="163.3269,447.8914,167.7334,439.0833,163.555,442.8966,159.7417,438.7183,163.3269,447.8914" style="stroke: #A80036; stroke-width: 1.0;"/><!--link service2 to q--><path d="M185.6643,374.5817 C206.3735,395.1968 239.9777,428.6483 260.2835,448.8617 " fill="none" id="service2-&gt;q" style="stroke: #A80036; stroke-width: 1.0;"/><polygon fill="#A80036" points="264.1595,452.7202,260.6032,443.5358,260.616,449.1927,254.9591,449.2055,264.1595,452.7202" style="stroke: #A80036; stroke-width: 1.0;"/><!--link repository2 to db2--><path d="M162.5,484.4332 C162.5,499.6342 162.5,521.434 162.5,538.7454 " fill="none" id="repository2-&gt;db2" style="stroke: #A80036; stroke-width: 1.0;"/><polygon fill="#A80036" points="162.5,543.9615,166.5,534.9615,162.5,538.9615,158.5,534.9615,162.5,543.9615" style="stroke: #A80036; stroke-width: 1.0;"/><!--link api1 to service1--><path d="M375.821,265.0817 C377.1817,283.706 379.3078,312.8072 380.7947,333.1588 " fill="none" id="api1-&gt;service1" style="stroke: #A80036; stroke-width: 1.0;"/><polygon fill="#A80036" points="381.177,338.3914,384.5104,329.1238,380.8126,333.4047,376.5317,329.7069,381.177,338.3914" style="stroke: #A80036; stroke-width: 1.0;"/><!--link service1 to repository1--><path d="M384.1513,374.5817 C385.8521,393.206 388.5098,422.3072 390.3684,442.6588 " fill="none" id="service1-&gt;repository1" style="stroke: #A80036; stroke-width: 1.0;"/><polygon fill="#A80036" points="390.8463,447.8914,394.0112,438.5649,390.3916,442.9121,386.0444,439.2925,390.8463,447.8914" style="stroke: #A80036; stroke-width: 1.0;"/><!--reverse link ext to service1--><path d="M77.8981,320.9792 C88.3356,310.5776 101.0497,300.5228 115,295 C197.8537,262.1992 302.3972,310.1338 352.7336,338.3564 " fill="none" id="ext&lt;-service1" style="stroke: #A80036; stroke-width: 1.0;"/><polygon fill="#A80036" points="74.1577,324.8193,83.3028,321.1632,77.6464,321.2376,77.572,315.5812,74.1577,324.8193" style="stroke: #A80036; stroke-width: 1.0;"/><!--link service1 to q--><path d="M365.1614,374.5817 C345.3935,395.1968 313.3167,428.6483 293.934,448.8617 " fill="none" id="service1-&gt;q" style="stroke: #A80036; stroke-width: 1.0;"/><polygon fill="#A80036" points="290.2341,452.7202,299.3504,448.9929,293.6948,449.1114,293.5763,443.4558,290.2341,452.7202" style="stroke: #A80036; stroke-width: 1.0;"/><!--link repository1 to db1--><path d="M392.5,484.4332 C392.5,499.6342 392.5,521.434 392.5,538.7454 " fill="none" id="repository1-&gt;db1" style="stroke: #A80036; stroke-width: 1.0;"/><polygon fill="#A80036" points="392.5,543.9615,396.5,534.9615,392.5,538.9615,388.5,534.9615,392.5,543.9615" style="stroke: #A80036; stroke-width: 1.0;"/><!--link api to ms1--><path d="M302.9109,162.1772 C287.7249,176.2688 266.2525,196.1936 247.9344,213.1915 C238.7754,221.6904 230.4049,229.4576 224.003,235.398 C222.4026,236.8831 220.9252,238.2541 219.5892,239.4937 " fill="none" id="api-&gt;ms1" style="stroke: #A80036; stroke-width: 1.0;"/><polygon fill="#A80036" points="219.5892,239.4937,228.9073,236.3041,223.2544,236.0928,223.4657,230.4399,219.5892,239.4937" style="stroke: #A80036; stroke-width: 1.0;"/><!--link api to ms2--><path d="M374.585,153.5312 C383.6792,155.6922 392.5891,158.1761 400.0099,160.9364 C403.7203,162.3166 407.0584,163.7659 409.8611,165.2784 C411.2625,166.0347 412.53,166.8068 413.6432,167.5939 C414.1999,167.9875 414.718,168.3849 415.1949,168.7859 C415.4334,168.9864 415.6616,169.1879 415.8793,169.3902 C415.9881,169.4914 416.0942,169.5928 416.1977,169.6944 C416.2494,169.7453 416.3005,169.7961 416.3509,169.8471 C416.3761,169.8725 416.4011,169.898 416.4259,169.9235 " fill="none" id="api-&gt;ms2" style="stroke: #A80036; stroke-width: 1.0;"/><polygon fill="#A80036" points="416.4259,169.9235,413.0071,160.6871,412.9355,166.3435,407.2791,166.2718,416.4259,169.9235" style="stroke: #A80036; stroke-width: 1.0;"/><!--link Client to api--><path d="M322.5,46.1228 C322.5,62.4735 322.5,97.242 322.5,120.6233 " fill="none" id="Client-&gt;api" style="stroke: #A80036; stroke-width: 1.0;"/><polygon fill="#A80036" points="322.5,125.72,326.5,116.72,322.5,120.72,318.5,116.72,322.5,125.72" style="stroke: #A80036; stroke-width: 1.0;"/><!--
@startuml

cloud "external\nservices" as ext
queue " > q >" as q
database db2
database db1

component "ms\ndomain2\n" as ms1 {
    [api2]
    [service2]
    [repository2]
    
    api2 -down-> service2
    service2 -down-> repository2
    service2 -down-> q
    repository2 -down-> db2
}


component "ms\ndomain1\n" as ms2 {
    [api1]
    [service1]
    [repository1]
  
    
    api1 -down-> service1
    service1 -down-> repository1
    service1 -left-> ext
    service1 -down-> q
    repository1 -down-> db1
}

component "API Gateway" as api

api -down-> ms1
api -down-> ms2

Client -down-> api

@enduml

PlantUML version 1.2019.09(Mon Aug 26 18:19:51 CEST 2019)
(GPL source distribution)
Java Runtime: OpenJDK Runtime Environment
JVM: OpenJDK 64-Bit Server VM
Java Version: 11.0.4+11-post-Ubuntu-1ubuntu218.04.3
Operating System: Linux
OS Version: 5.0.0-36-generic
Default Encoding: UTF-8
Language: en
Country: US
--></g></svg>