<?xml version="1.0" encoding="UTF-8" standalone="no"?><svg xmlns="http://www.w3.org/2000/svg" xmlns:xlink="http://www.w3.org/1999/xlink" contentScriptType="application/ecmascript" contentStyleType="text/css" height="1203px" preserveAspectRatio="none" style="width:789px;height:1203px;" version="1.1" viewBox="0 0 789 1203" width="789px" zoomAndPan="magnify"><defs><filter height="300%" id="f1tujjywqky55v" width="300%" x="-1" y="-1"><feGaussianBlur result="blurOut" stdDeviation="2.0"/><feColorMatrix in="blurOut" result="blurOut2" type="matrix" values="0 0 0 0 0 0 0 0 0 0 0 0 0 0 0 0 0 0 .4 0"/><feOffset dx="4.0" dy="4.0" in="blurOut2" result="blurOut3"/><feBlend in="SourceGraphic" in2="blurOut3" mode="normal"/></filter></defs><g><!--cluster FrontendApp\n--><rect fill="#FFFFFF" filter="url(#f1tujjywqky55v)" height="965" style="stroke: #000000; stroke-width: 1.5;" width="764" x="14" y="130"/><rect fill="#FFFFFF" height="10" style="stroke: #000000; stroke-width: 1.5;" width="15" x="758" y="135"/><rect fill="#FFFFFF" height="2" style="stroke: #000000; stroke-width: 1.5;" width="4" x="756" y="137"/><rect fill="#FFFFFF" height="2" style="stroke: #000000; stroke-width: 1.5;" width="4" x="756" y="141"/><text fill="#000000" font-family="sans-serif" font-size="14" font-weight="bold" lengthAdjust="spacingAndGlyphs" textLength="103" x="344.5" y="155.9951">FrontendApp</text><text fill="#000000" font-family="sans-serif" font-size="14" font-weight="bold" lengthAdjust="spacingAndGlyphs" textLength="0" x="398.5" y="172.292"/><!--cluster domain1\n--><rect fill="#FFFFFF" filter="url(#f1tujjywqky55v)" height="777" style="stroke: #000000; stroke-width: 1.5;" width="232" x="22" y="310"/><rect fill="#FFFFFF" height="10" style="stroke: #000000; stroke-width: 1.5;" width="15" x="234" y="315"/><rect fill="#FFFFFF" height="2" style="stroke: #000000; stroke-width: 1.5;" width="4" x="232" y="317"/><rect fill="#FFFFFF" height="2" style="stroke: #000000; stroke-width: 1.5;" width="4" x="232" y="321"/><text fill="#000000" font-family="sans-serif" font-size="14" font-weight="bold" lengthAdjust="spacingAndGlyphs" textLength="67" x="104.5" y="335.9951">domain1</text><text fill="#000000" font-family="sans-serif" font-size="14" font-weight="bold" lengthAdjust="spacingAndGlyphs" textLength="0" x="140.5" y="352.292"/><!--cluster view1--><rect fill="#FFFFFF" filter="url(#f1tujjywqky55v)" height="71" style="stroke: #000000; stroke-width: 1.5;" width="216" x="30" y="353"/><rect fill="#FFFFFF" height="10" style="stroke: #000000; stroke-width: 1.5;" width="15" x="226" y="358"/><rect fill="#FFFFFF" height="2" style="stroke: #000000; stroke-width: 1.5;" width="4" x="224" y="360"/><rect fill="#FFFFFF" height="2" style="stroke: #000000; stroke-width: 1.5;" width="4" x="224" y="364"/><text fill="#000000" font-family="sans-serif" font-size="14" font-weight="bold" lengthAdjust="spacingAndGlyphs" textLength="47" x="114.5" y="378.9951">view1</text><!--cluster domain2\n--><rect fill="#FFFFFF" filter="url(#f1tujjywqky55v)" height="777" style="stroke: #000000; stroke-width: 1.5;" width="234" x="536" y="310"/><rect fill="#FFFFFF" height="10" style="stroke: #000000; stroke-width: 1.5;" width="15" x="750" y="315"/><rect fill="#FFFFFF" height="2" style="stroke: #000000; stroke-width: 1.5;" width="4" x="748" y="317"/><rect fill="#FFFFFF" height="2" style="stroke: #000000; stroke-width: 1.5;" width="4" x="748" y="321"/><text fill="#000000" font-family="sans-serif" font-size="14" font-weight="bold" lengthAdjust="spacingAndGlyphs" textLength="67" x="619.5" y="335.9951">domain2</text><text fill="#000000" font-family="sans-serif" font-size="14" font-weight="bold" lengthAdjust="spacingAndGlyphs" textLength="0" x="655.5" y="352.292"/><!--cluster view2--><rect fill="#FFFFFF" filter="url(#f1tujjywqky55v)" height="71" style="stroke: #000000; stroke-width: 1.5;" width="218" x="544" y="353"/><rect fill="#FFFFFF" height="10" style="stroke: #000000; stroke-width: 1.5;" width="15" x="742" y="358"/><rect fill="#FFFFFF" height="2" style="stroke: #000000; stroke-width: 1.5;" width="4" x="740" y="360"/><rect fill="#FFFFFF" height="2" style="stroke: #000000; stroke-width: 1.5;" width="4" x="740" y="364"/><text fill="#000000" font-family="sans-serif" font-size="14" font-weight="bold" lengthAdjust="spacingAndGlyphs" textLength="47" x="629.5" y="378.9951">view2</text><!--cluster common--><rect fill="#FFFFFF" filter="url(#f1tujjywqky55v)" height="370" style="stroke: #000000; stroke-width: 1.5;" width="266" x="262" y="717"/><rect fill="#FFFFFF" height="10" style="stroke: #000000; stroke-width: 1.5;" width="15" x="508" y="722"/><rect fill="#FFFFFF" height="2" style="stroke: #000000; stroke-width: 1.5;" width="4" x="506" y="724"/><rect fill="#FFFFFF" height="2" style="stroke: #000000; stroke-width: 1.5;" width="4" x="506" y="728"/><text fill="#000000" font-family="sans-serif" font-size="14" font-weight="bold" lengthAdjust="spacingAndGlyphs" textLength="67" x="361.5" y="742.9951">common</text><!--entity router--><rect fill="#FEFECE" filter="url(#f1tujjywqky55v)" height="36.2969" style="stroke: #A80036; stroke-width: 1.5;" width="62" x="408" y="173"/><rect fill="#FEFECE" height="5" style="stroke: #A80036; stroke-width: 1.5;" width="10" x="403" y="178"/><rect fill="#FEFECE" height="5" style="stroke: #A80036; stroke-width: 1.5;" width="10" x="403" y="199.2969"/><text fill="#000000" font-family="sans-serif" font-size="14" lengthAdjust="spacingAndGlyphs" textLength="42" x="418" y="195.9951">router</text><!--entity state--><path d="M344.5,565 C344.5,555 372,555 372,555 C372,555 399.5,555 399.5,565 L399.5,590.2969 C399.5,600.2969 372,600.2969 372,600.2969 C372,600.2969 344.5,600.2969 344.5,590.2969 L344.5,565 " fill="#FEFECE" filter="url(#f1tujjywqky55v)" style="stroke: #000000; stroke-width: 1.5;"/><path d="M344.5,565 C344.5,575 372,575 372,575 C372,575 399.5,575 399.5,565 " fill="none" style="stroke: #000000; stroke-width: 1.5;"/><text fill="#000000" font-family="sans-serif" font-size="14" lengthAdjust="spacingAndGlyphs" textLength="35" x="354.5" y="591.9951">state</text><!--entity model1--><rect fill="#FEFECE" filter="url(#f1tujjywqky55v)" height="36.2969" style="stroke: #A80036; stroke-width: 1.5;" width="72" x="104" y="744"/><rect fill="#FEFECE" height="5" style="stroke: #A80036; stroke-width: 1.5;" width="10" x="99" y="749"/><rect fill="#FEFECE" height="5" style="stroke: #A80036; stroke-width: 1.5;" width="10" x="99" y="770.2969"/><text fill="#000000" font-family="sans-serif" font-size="14" lengthAdjust="spacingAndGlyphs" textLength="52" x="114" y="766.9951">model1</text><!--entity service1--><rect fill="#FEFECE" filter="url(#f1tujjywqky55v)" height="36.2969" style="stroke: #A80036; stroke-width: 1.5;" width="78" x="44" y="1043"/><rect fill="#FEFECE" height="5" style="stroke: #A80036; stroke-width: 1.5;" width="10" x="39" y="1048"/><rect fill="#FEFECE" height="5" style="stroke: #A80036; stroke-width: 1.5;" width="10" x="39" y="1069.2969"/><text fill="#000000" font-family="sans-serif" font-size="14" lengthAdjust="spacingAndGlyphs" textLength="58" x="54" y="1065.9951">service1</text><!--entity mock1--><rect fill="#FEFECE" filter="url(#f1tujjywqky55v)" height="36.2969" style="stroke: #A80036; stroke-width: 1.5;" width="67" x="178.5" y="1043"/><rect fill="#FEFECE" height="5" style="stroke: #A80036; stroke-width: 1.5;" width="10" x="173.5" y="1048"/><rect fill="#FEFECE" height="5" style="stroke: #A80036; stroke-width: 1.5;" width="10" x="173.5" y="1069.2969"/><text fill="#000000" font-family="sans-serif" font-size="14" lengthAdjust="spacingAndGlyphs" textLength="47" x="188.5" y="1065.9951">mock1</text><!--entity vA--><rect fill="#FEFECE" filter="url(#f1tujjywqky55v)" height="36.2969" style="stroke: #A80036; stroke-width: 1.5;" width="64" x="174" y="380"/><rect fill="#FEFECE" height="5" style="stroke: #A80036; stroke-width: 1.5;" width="10" x="169" y="385"/><rect fill="#FEFECE" height="5" style="stroke: #A80036; stroke-width: 1.5;" width="10" x="169" y="406.2969"/><text fill="#000000" font-family="sans-serif" font-size="14" lengthAdjust="spacingAndGlyphs" textLength="44" x="184" y="402.9951">pageA</text><!--entity vB--><rect fill="#FEFECE" filter="url(#f1tujjywqky55v)" height="36.2969" style="stroke: #A80036; stroke-width: 1.5;" width="65" x="38.5" y="380"/><rect fill="#FEFECE" height="5" style="stroke: #A80036; stroke-width: 1.5;" width="10" x="33.5" y="385"/><rect fill="#FEFECE" height="5" style="stroke: #A80036; stroke-width: 1.5;" width="10" x="33.5" y="406.2969"/><text fill="#000000" font-family="sans-serif" font-size="14" lengthAdjust="spacingAndGlyphs" textLength="45" x="48.5" y="402.9951">pageB</text><!--entity model2--><rect fill="#FEFECE" filter="url(#f1tujjywqky55v)" height="36.2969" style="stroke: #A80036; stroke-width: 1.5;" width="72" x="584" y="744"/><rect fill="#FEFECE" height="5" style="stroke: #A80036; stroke-width: 1.5;" width="10" x="579" y="749"/><rect fill="#FEFECE" height="5" style="stroke: #A80036; stroke-width: 1.5;" width="10" x="579" y="770.2969"/><text fill="#000000" font-family="sans-serif" font-size="14" lengthAdjust="spacingAndGlyphs" textLength="52" x="594" y="766.9951">model2</text><!--entity service2--><rect fill="#FEFECE" filter="url(#f1tujjywqky55v)" height="36.2969" style="stroke: #A80036; stroke-width: 1.5;" width="78" x="544" y="1043"/><rect fill="#FEFECE" height="5" style="stroke: #A80036; stroke-width: 1.5;" width="10" x="539" y="1048"/><rect fill="#FEFECE" height="5" style="stroke: #A80036; stroke-width: 1.5;" width="10" x="539" y="1069.2969"/><text fill="#000000" font-family="sans-serif" font-size="14" lengthAdjust="spacingAndGlyphs" textLength="58" x="554" y="1065.9951">service2</text><!--entity mock2--><rect fill="#FEFECE" filter="url(#f1tujjywqky55v)" height="36.2969" style="stroke: #A80036; stroke-width: 1.5;" width="67" x="678.5" y="1043"/><rect fill="#FEFECE" height="5" style="stroke: #A80036; stroke-width: 1.5;" width="10" x="673.5" y="1048"/><rect fill="#FEFECE" height="5" style="stroke: #A80036; stroke-width: 1.5;" width="10" x="673.5" y="1069.2969"/><text fill="#000000" font-family="sans-serif" font-size="14" lengthAdjust="spacingAndGlyphs" textLength="47" x="688.5" y="1065.9951">mock2</text><!--entity vC--><rect fill="#FEFECE" filter="url(#f1tujjywqky55v)" height="36.2969" style="stroke: #A80036; stroke-width: 1.5;" width="65" x="653.5" y="380"/><rect fill="#FEFECE" height="5" style="stroke: #A80036; stroke-width: 1.5;" width="10" x="648.5" y="385"/><rect fill="#FEFECE" height="5" style="stroke: #A80036; stroke-width: 1.5;" width="10" x="648.5" y="406.2969"/><text fill="#000000" font-family="sans-serif" font-size="14" lengthAdjust="spacingAndGlyphs" textLength="45" x="663.5" y="402.9951">pageC</text><!--entity vD--><rect fill="#FEFECE" filter="url(#f1tujjywqky55v)" height="36.2969" style="stroke: #A80036; stroke-width: 1.5;" width="66" x="552" y="380"/><rect fill="#FEFECE" height="5" style="stroke: #A80036; stroke-width: 1.5;" width="10" x="547" y="385"/><rect fill="#FEFECE" height="5" style="stroke: #A80036; stroke-width: 1.5;" width="10" x="547" y="406.2969"/><text fill="#000000" font-family="sans-serif" font-size="14" lengthAdjust="spacingAndGlyphs" textLength="46" x="562" y="402.9951">pageD</text><!--entity vi--><rect fill="#FEFECE" filter="url(#f1tujjywqky55v)" height="36.2969" style="stroke: #A80036; stroke-width: 1.5;" width="58" x="462" y="744"/><rect fill="#FEFECE" height="5" style="stroke: #A80036; stroke-width: 1.5;" width="10" x="457" y="749"/><rect fill="#FEFECE" height="5" style="stroke: #A80036; stroke-width: 1.5;" width="10" x="457" y="770.2969"/><text fill="#000000" font-family="sans-serif" font-size="14" lengthAdjust="spacingAndGlyphs" textLength="38" x="472" y="766.9951">pagei</text><!--entity model--><rect fill="#FEFECE" filter="url(#f1tujjywqky55v)" height="36.2969" style="stroke: #A80036; stroke-width: 1.5;" width="63" x="363.5" y="744"/><rect fill="#FEFECE" height="5" style="stroke: #A80036; stroke-width: 1.5;" width="10" x="358.5" y="749"/><rect fill="#FEFECE" height="5" style="stroke: #A80036; stroke-width: 1.5;" width="10" x="358.5" y="770.2969"/><text fill="#000000" font-family="sans-serif" font-size="14" lengthAdjust="spacingAndGlyphs" textLength="43" x="373.5" y="766.9951">model</text><!--entity service--><rect fill="#FEFECE" filter="url(#f1tujjywqky55v)" height="36.2969" style="stroke: #A80036; stroke-width: 1.5;" width="69" x="360.5" y="1043"/><rect fill="#FEFECE" height="5" style="stroke: #A80036; stroke-width: 1.5;" width="10" x="355.5" y="1048"/><rect fill="#FEFECE" height="5" style="stroke: #A80036; stroke-width: 1.5;" width="10" x="355.5" y="1069.2969"/><text fill="#000000" font-family="sans-serif" font-size="14" lengthAdjust="spacingAndGlyphs" textLength="49" x="370.5" y="1065.9951">service</text><!--entity mock--><rect fill="#FEFECE" filter="url(#f1tujjywqky55v)" height="36.2969" style="stroke: #A80036; stroke-width: 1.5;" width="58" x="270" y="744"/><rect fill="#FEFECE" height="5" style="stroke: #A80036; stroke-width: 1.5;" width="10" x="265" y="749"/><rect fill="#FEFECE" height="5" style="stroke: #A80036; stroke-width: 1.5;" width="10" x="265" y="770.2969"/><text fill="#000000" font-family="sans-serif" font-size="14" lengthAdjust="spacingAndGlyphs" textLength="38" x="280" y="766.9951">mock</text><!--entity user--><ellipse cx="439" cy="18" fill="#FEFECE" filter="url(#f1tujjywqky55v)" rx="8" ry="8" style="stroke: #A80036; stroke-width: 2.0;"/><path d="M439,26 L439,53 M426,34 L452,34 M439,53 L426,68 M439,53 L452,68 " fill="none" filter="url(#f1tujjywqky55v)" style="stroke: #A80036; stroke-width: 2.0;"/><text fill="#000000" font-family="sans-serif" font-size="14" lengthAdjust="spacingAndGlyphs" textLength="31" x="423.5" y="87.9951">user</text><!--entity backend--><rect fill="#FEFECE" filter="url(#f1tujjywqky55v)" height="36.2969" style="stroke: #A80036; stroke-width: 1.5;" width="105" x="390.5" y="1156"/><rect fill="#FEFECE" height="5" style="stroke: #A80036; stroke-width: 1.5;" width="10" x="385.5" y="1161"/><rect fill="#FEFECE" height="5" style="stroke: #A80036; stroke-width: 1.5;" width="10" x="385.5" y="1182.2969"/><text fill="#000000" font-family="sans-serif" font-size="14" lengthAdjust="spacingAndGlyphs" textLength="85" x="400.5" y="1178.9951">backend API</text><!--link view1 to model1--><path d="M139,424.0593 C139,424.1793 139,424.2996 139,424.4201 C139,426.3491 139,428.3503 139,430.412 C139,446.9055 139,467.2709 139,485.5 C139,485.5 139,485.5 139,669.5 C139,693.1345 139.3305,720.1638 139.6115,738.8746 " fill="none" id="view1-&gt;model1" style="stroke: #A80036; stroke-width: 1.0;"/><polygon fill="#A80036" points="139.6891,743.9216,143.55,734.8611,139.6121,738.9222,135.551,734.9843,139.6891,743.9216" style="stroke: #A80036; stroke-width: 1.0;"/><text fill="#000000" font-family="sans-serif" font-size="13" lengthAdjust="spacingAndGlyphs" textLength="54" x="140" y="574.5669">dispatch</text><text fill="#000000" font-family="sans-serif" font-size="13" lengthAdjust="spacingAndGlyphs" textLength="39" x="147.5" y="589.6997">action</text><!--reverse link view1 to state--><path d="M157,424 C177.2151,440.2159 195.0216,425.5967 211,446 C224.2924,462.9736 205.6604,476.3216 218,494 C248.376,537.5184 308.8946,560.5059 344.3492,570.7318 " fill="none" id="view1&lt;-state" style="stroke: #A80036; stroke-width: 1.0;"/><polygon fill="#A80036" points="157,424,161.5175,432.7517,160.9002,427.1286,166.5233,426.5114,157,424" style="stroke: #A80036; stroke-width: 1.0;"/><text fill="#000000" font-family="sans-serif" font-size="13" lengthAdjust="spacingAndGlyphs" textLength="51" x="219" y="490.0669">connect</text><!--reverse link state to model1--><path d="M340.2865,602.7204 C292.7563,640.5192 204.199,710.9452 162.6377,743.9971 " fill="none" id="state&lt;-model1" style="stroke: #A80036; stroke-width: 1.0;"/><polygon fill="#A80036" points="344.4755,599.3891,334.9417,601.8604,340.5622,602.5013,339.9213,608.1217,344.4755,599.3891" style="stroke: #A80036; stroke-width: 1.0;"/><text fill="#000000" font-family="sans-serif" font-size="13" lengthAdjust="spacingAndGlyphs" textLength="45" x="264" y="674.0669">update</text><!--link model1 to service1--><path d="M116.4092,780.2087 C100.3516,794.8188 82,816.8979 82,841.5 C82,841.5 82,841.5 82,981.5 C82,1000.35 82.2846,1021.712 82.5501,1037.5419 " fill="none" id="model1-&gt;service1" style="stroke: #A80036; stroke-width: 1.0;"/><polygon fill="#A80036" points="82.639,1042.6866,86.4826,1033.6187,82.5524,1037.6873,78.4838,1033.7572,82.639,1042.6866" style="stroke: #A80036; stroke-width: 1.0;"/><text fill="#000000" font-family="sans-serif" font-size="13" lengthAdjust="spacingAndGlyphs" textLength="21" x="83" y="916.0669">call</text><!--reverse link model1 to service1--><path d="M140.4499,785.4581 C140.7154,801.288 141,822.65 141,841.5 C141,841.5 141,841.5 141,981.5 C141,1006.1021 122.6484,1028.1812 106.5908,1042.7913 " fill="none" id="model1&lt;-service1" style="stroke: #A80036; stroke-width: 1.0;"/><polygon fill="#A80036" points="140.361,780.3134,136.5174,789.3813,140.4476,785.3127,144.5162,789.2428,140.361,780.3134" style="stroke: #A80036; stroke-width: 1.0;"/><!--link service1 to backend--><path d="M121.4584,1079.0179 C133.9276,1084.5202 147.9187,1090.3417 161,1095 C237.2496,1122.1528 327.7176,1146.085 385.2342,1160.302 " fill="none" id="service1-&gt;backend" style="stroke: #A80036; stroke-width: 1.0;"/><polygon fill="#A80036" points="390.3506,1161.5626,382.5688,1155.5257,385.4958,1160.3665,380.655,1163.2934,390.3506,1161.5626" style="stroke: #A80036; stroke-width: 1.0;"/><text fill="#000000" font-family="sans-serif" font-size="13" lengthAdjust="spacingAndGlyphs" textLength="20" x="253" y="1122.0669">API</text><!--reverse link service1 to backend--><path d="M122.9997,1081.1343 C134.9608,1086.41 148.2818,1091.5741 161,1095 C213.2732,1109.081 229.5391,1095.6351 282,1109 C326.2538,1120.274 374.515,1140.9687 406.5418,1155.9854 " fill="none" id="service1&lt;-backend" style="stroke: #A80036; stroke-width: 1.0;"/><polygon fill="#A80036" points="118.3129,1079.0312,124.8865,1086.3652,122.8747,1081.0782,128.1617,1079.0663,118.3129,1079.0312" style="stroke: #A80036; stroke-width: 1.0;"/><!--link service1 to mock1--><path d="M122.0543,1061 C138.1775,1061 156.8271,1061 172.9499,1061 " fill="none" id="service1-&gt;mock1" style="stroke: #A80036; stroke-width: 1.0;"/><polygon fill="#A80036" points="178.3134,1061,169.3134,1057,173.3134,1061,169.3134,1065,178.3134,1061" style="stroke: #A80036; stroke-width: 1.0;"/><text fill="#000000" font-family="sans-serif" font-size="13" lengthAdjust="spacingAndGlyphs" textLength="20" x="140.25" y="1054.0669">API</text><!--reverse link service1 to mock1--><path d="M127.5066,1063.7627 C138.0486,1064.1343 149.254,1064.2982 159.6667,1064 C165.6706,1063.8281 172.0572,1063.5454 178.2301,1063.2205 " fill="none" id="service1&lt;-mock1" style="stroke: #A80036; stroke-width: 1.0;"/><polygon fill="#A80036" points="122.3911,1063.5647,131.2296,1067.9099,127.3874,1063.7581,131.5391,1059.9159,122.3911,1063.5647" style="stroke: #A80036; stroke-width: 1.0;"/><!--link view2 to model2--><path d="M736,424 C695.2634,461.3047 628,430.2631 628,485.5 C628,485.5 628,485.5 628,669.5 C628,693.2213 625.3563,720.2377 623.1084,738.9217 " fill="none" id="view2-&gt;model2" style="stroke: #A80036; stroke-width: 1.0;"/><polygon fill="#A80036" points="622.4874,743.9609,627.5584,735.5179,623.0991,738.9985,619.6185,734.5391,622.4874,743.9609" style="stroke: #A80036; stroke-width: 1.0;"/><text fill="#000000" font-family="sans-serif" font-size="13" lengthAdjust="spacingAndGlyphs" textLength="54" x="629" y="574.5669">dispatch</text><text fill="#000000" font-family="sans-serif" font-size="13" lengthAdjust="spacingAndGlyphs" textLength="39" x="636.5" y="589.6997">action</text><!--reverse link state to model2--><path d="M404.0908,601.374 C454.3049,638.7308 550.3625,710.1931 595.4656,743.7476 " fill="none" id="state&lt;-model2" style="stroke: #A80036; stroke-width: 1.0;"/><polygon fill="#A80036" points="399.9667,598.3059,404.7998,606.8873,403.9782,601.2904,409.5751,600.4689,399.9667,598.3059" style="stroke: #A80036; stroke-width: 1.0;"/><text fill="#000000" font-family="sans-serif" font-size="13" lengthAdjust="spacingAndGlyphs" textLength="45" x="505" y="674.0669">update</text><!--link model2 to service2--><path d="M605.2558,780.0505 C594.2117,795.4202 581,818.5936 581,841.5 C581,841.5 581,841.5 581,981.5 C581,1000.3544 581.5691,1021.7162 582.1002,1037.5449 " fill="none" id="model2-&gt;service2" style="stroke: #A80036; stroke-width: 1.0;"/><polygon fill="#A80036" points="582.278,1042.6891,585.9645,1033.5562,582.1051,1037.6921,577.9692,1033.8328,582.278,1042.6891" style="stroke: #A80036; stroke-width: 1.0;"/><text fill="#000000" font-family="sans-serif" font-size="13" lengthAdjust="spacingAndGlyphs" textLength="21" x="582" y="916.0669">call</text><!--reverse link model2 to service2--><path d="M629.1029,785.3855 C634.3833,801.0219 640,822.1921 640,841.5 C640,841.5 640,841.5 640,981.5 C640,1005.9556 621.9648,1028.053 606.1841,1042.7072 " fill="none" id="model2&lt;-service2" style="stroke: #A80036; stroke-width: 1.0;"/><polygon fill="#A80036" points="627.3337,780.3055,626.5165,790.1204,628.9783,785.0273,634.0713,787.4891,627.3337,780.3055" style="stroke: #A80036; stroke-width: 1.0;"/><!--link service2 to backend--><path d="M558.865,1079.0199 C551.5991,1084.2919 543.549,1089.9834 536,1095 C526.033,1101.6234 522.5442,1101.7808 513,1109 C495.5905,1122.1685 477.5783,1138.979 464.1855,1152.2052 " fill="none" id="service2-&gt;backend" style="stroke: #A80036; stroke-width: 1.0;"/><polygon fill="#A80036" points="460.5349,1155.8346,469.7375,1152.3258,464.0807,1152.3094,464.0972,1146.6525,460.5349,1155.8346" style="stroke: #A80036; stroke-width: 1.0;"/><text fill="#000000" font-family="sans-serif" font-size="13" lengthAdjust="spacingAndGlyphs" textLength="20" x="514" y="1122.0669">API</text><!--reverse link service2 to backend--><path d="M571.5644,1083.61 C563.8145,1097.2144 552.5342,1114.1371 539,1126 C524.9871,1138.2825 507.2733,1148.2935 490.8882,1155.9335 " fill="none" id="service2&lt;-backend" style="stroke: #A80036; stroke-width: 1.0;"/><polygon fill="#A80036" points="574.0554,1079.1356,566.1825,1085.0531,571.6231,1083.5041,573.1722,1088.9448,574.0554,1079.1356" style="stroke: #A80036; stroke-width: 1.0;"/><!--link service2 to mock2--><path d="M622.0543,1061 C638.1775,1061 656.8271,1061 672.9499,1061 " fill="none" id="service2-&gt;mock2" style="stroke: #A80036; stroke-width: 1.0;"/><polygon fill="#A80036" points="678.3134,1061,669.3134,1057,673.3134,1061,669.3134,1065,678.3134,1061" style="stroke: #A80036; stroke-width: 1.0;"/><text fill="#000000" font-family="sans-serif" font-size="13" lengthAdjust="spacingAndGlyphs" textLength="20" x="640.25" y="1054.0669">API</text><!--reverse link service2 to mock2--><path d="M627.5066,1063.7627 C638.0486,1064.1343 649.254,1064.2982 659.6667,1064 C665.6706,1063.8281 672.0572,1063.5454 678.2301,1063.2205 " fill="none" id="service2&lt;-mock2" style="stroke: #A80036; stroke-width: 1.0;"/><polygon fill="#A80036" points="622.3911,1063.5647,631.2296,1067.9099,627.3874,1063.7581,631.5391,1059.9159,622.3911,1063.5647" style="stroke: #A80036; stroke-width: 1.0;"/><!--reverse link vA to state--><path d="M226.5554,420.2271 C258.3058,454.5596 318.9502,520.1359 350.9799,554.7705 " fill="none" id="vA&lt;-state" style="stroke: #A80036; stroke-width: 1.0;"/><polygon fill="#A80036" points="222.8305,416.1992,226.0043,425.5226,226.2253,419.8701,231.8778,420.091,222.8305,416.1992" style="stroke: #A80036; stroke-width: 1.0;"/><text fill="#000000" font-family="sans-serif" font-size="13" lengthAdjust="spacingAndGlyphs" textLength="51" x="295" y="490.0669">connect</text><!--reverse link vC to state--><path d="M650.0044,418.2086 C645.3763,420.361 640.6346,422.3593 636,424 C589.8223,440.3471 573.757,428.51 528,446 C502.5096,455.7434 496.7049,460.4594 475,477 C443.8019,500.7751 412.1305,533.188 392.3004,554.7017 " fill="none" id="vC&lt;-state" style="stroke: #A80036; stroke-width: 1.0;"/><polygon fill="#A80036" points="654.5864,416.0124,644.7416,416.2954,650.0776,418.1735,648.1994,423.5095,654.5864,416.0124" style="stroke: #A80036; stroke-width: 1.0;"/><text fill="#000000" font-family="sans-serif" font-size="13" lengthAdjust="spacingAndGlyphs" textLength="51" x="476" y="490.0669">connect</text><!--link model to service--><path d="M395,780.3142 C395,796.4276 395,820.5208 395,841.5 C395,841.5 395,841.5 395,981.5 C395,1000.3485 395,1021.7106 395,1037.541 " fill="none" id="model-&gt;service" style="stroke: #A80036; stroke-width: 1.0;"/><polygon fill="#A80036" points="395,1042.6858,399,1033.6858,395,1037.6858,391,1033.6858,395,1042.6858" style="stroke: #A80036; stroke-width: 1.0;"/><text fill="#000000" font-family="sans-serif" font-size="13" lengthAdjust="spacingAndGlyphs" textLength="21" x="396" y="916.0669">call</text><!--reverse link state to model--><path d="M375.4396,605.0913 C380.2101,643.3593 388.7031,711.4875 392.7436,743.8996 " fill="none" id="state&lt;-model" style="stroke: #A80036; stroke-width: 1.0;"/><polygon fill="#A80036" points="374.8203,600.1233,371.9645,609.549,375.4389,605.0849,379.903,608.5593,374.8203,600.1233" style="stroke: #A80036; stroke-width: 1.0;"/><text fill="#000000" font-family="sans-serif" font-size="13" lengthAdjust="spacingAndGlyphs" textLength="45" x="385" y="674.0669">update</text><!--link router to view1--><path d="M407.9825,194.6626 C349.2809,203.3243 222.0145,230.6824 157,310 C151.0687,317.2362 146.9289,325.9145 144.0667,334.9613 C142.6356,339.4847 141.5238,344.1002 140.6673,348.6737 C140.4531,349.8171 140.2549,350.9578 140.0717,352.0938 C140.0259,352.3779 139.981,352.6616 139.937,352.9449 " fill="none" id="router-&gt;view1" style="stroke: #A80036; stroke-width: 1.0;"/><polygon fill="#A80036" points="139.937,352.9449,145.2694,344.6645,140.7035,348.004,137.364,343.4381,139.937,352.9449" style="stroke: #A80036; stroke-width: 1.0;"/><!--link router to view2--><path d="M470.1969,193.9454 C531.287,201.463 666.7519,227.0706 736,310 C741.997,317.1819 746.1717,325.8312 749.0489,334.8656 C750.4874,339.3829 751.6016,343.9963 752.457,348.5708 C752.6709,349.7144 752.8685,350.8556 753.0511,351.9922 C753.0967,352.2764 753.1414,352.5603 753.1851,352.8438 " fill="none" id="router-&gt;view2" style="stroke: #A80036; stroke-width: 1.0;"/><polygon fill="#A80036" points="753.1851,352.8438,755.7658,343.3391,752.4226,347.9023,747.8594,344.5591,753.1851,352.8438" style="stroke: #A80036; stroke-width: 1.0;"/><!--link user to router--><path d="M439,91.1893 C439,116.14 439,146.927 439,167.6568 " fill="none" id="user-&gt;router" style="stroke: #A80036; stroke-width: 1.0;"/><polygon fill="#A80036" points="439,172.7007,443,163.7007,439,167.7007,435,163.7007,439,172.7007" style="stroke: #A80036; stroke-width: 1.0;"/><!--
@startuml

actor user
component "backend API" as backend
component "FrontendApp\n" {
    component router
    database state
    component "domain1\n" {
        component view1 {
            component pageA as vA
            component pageB as vB
        }
        component model1
        component service1
        component mock1

        view1 -down-> model1 : dispatch\naction
        state -up-> view1 : connect
        model1 -up-> state : update
        model1 -down-> service1 : call
        service1 -up-> model1
        service1 -down-> backend : API
        backend -up-> service1

        service1 -right-> mock1 : API
        mock1 -left-> service1
    }
    
    component "domain2\n" {
        component view2 {
            component pageC as vC
            component pageD as vD
        }
        component model2
        component service2
        component mock2

        view2 -down-> model2 : dispatch\naction
        model2 -up-> state : update
        model2 -down-> service2 : call
        service2 -up-> model2
        service2 -down-> backend : API
        backend -up-> service2

        service2 -right-> mock2 : API
        mock2 -left-> service2
    }
    component common {
        component pagei as vi
        [model]
        [service]
        [mock]

        state -up-> vA : connect 
        state -up-> vC : connect 
        model -down-> service : call
        model -up-> state : update
    }
    router -down-> view1
    router -down-> view2
}
user -down-> router


@enduml

PlantUML version 1.2019.09(Mon Aug 26 18:19:51 CEST 2019)
(GPL source distribution)
Java Runtime: OpenJDK Runtime Environment
JVM: OpenJDK 64-Bit Server VM
Java Version: 11.0.4+11-post-Ubuntu-1ubuntu218.04.3
Operating System: Linux
OS Version: 5.0.0-36-generic
Default Encoding: UTF-8
Language: en
Country: US
--></g></svg>