<?xml version="1.0" encoding="UTF-8" standalone="no"?><svg xmlns="http://www.w3.org/2000/svg" xmlns:xlink="http://www.w3.org/1999/xlink" contentScriptType="application/ecmascript" contentStyleType="text/css" height="231px" preserveAspectRatio="none" style="width:246px;height:231px;" version="1.1" viewBox="0 0 246 231" width="246px" zoomAndPan="magnify"><defs><filter height="300%" id="f1vdsbkpx0m88t" width="300%" x="-1" y="-1"><feGaussianBlur result="blurOut" stdDeviation="2.0"/><feColorMatrix in="blurOut" result="blurOut2" type="matrix" values="0 0 0 0 0 0 0 0 0 0 0 0 0 0 0 0 0 0 .4 0"/><feOffset dx="4.0" dy="4.0" in="blurOut2" result="blurOut3"/><feBlend in="SourceGraphic" in2="blurOut3" mode="normal"/></filter></defs><g><!--cluster frontend--><rect fill="#FFFFFF" filter="url(#f1vdsbkpx0m88t)" height="114" style="stroke: #000000; stroke-width: 1.5;" width="172" x="63.5" y="16"/><rect fill="#FFFFFF" height="10" style="stroke: #000000; stroke-width: 1.5;" width="15" x="215.5" y="21"/><rect fill="#FFFFFF" height="2" style="stroke: #000000; stroke-width: 1.5;" width="4" x="213.5" y="23"/><rect fill="#FFFFFF" height="2" style="stroke: #000000; stroke-width: 1.5;" width="4" x="213.5" y="27"/><text fill="#000000" font-family="sans-serif" font-size="14" font-weight="bold" lengthAdjust="spacingAndGlyphs" textLength="69" x="115" y="41.9951">frontend</text><!--entity mess--><path d="M80.5676,52.1688 C83.0564,46.1504 88.291,45.0228 92.3467,50.5735 C96.2942,45.0988 99.786,45.3993 103.5916,50.7214 C106.7021,44.5412 111.2047,43.8811 115.679,49.3001 C118.8131,42.7603 124.2502,42.4471 128.0383,48.6666 C131.0929,43.723 135.8556,43.3109 139.5037,47.957 C141.522,41.7588 146.3035,41.761 149.985,46.3392 C153.7574,41.1559 157.6743,41.4537 161.4039,46.3875 C166.1975,41.5251 171.6195,42.5178 173.8413,49.1664 C177.4168,43.4154 181.9795,42.7923 186.2951,48.3515 C190.6667,42.9463 194.6552,43.3711 197.9694,49.4284 C202.4772,44.9832 206.1941,45.4994 208.7713,51.437 C211.737,45.7318 216.7621,45.5344 219.852,51.3173 C228.4429,56.5825 228.2187,61.7851 220.5667,67.7565 C227.5144,70.5844 228.913,77.0804 223.622,82.4527 C230.332,89.0868 230.3881,95.711 220.6528,99.4769 C227.8816,105.1032 226.5412,110.0046 220.0378,115.0899 C216.6863,121.4194 211.398,120.4641 207.9306,115.2111 C206.2133,120.5403 200.9198,122.6739 196.8699,117.72 C193.2336,123.2691 187.2411,122.8596 184.526,116.745 C182.5525,122.1016 177.9116,123.1855 173.6469,119.5025 C169.607,125.5603 165.1128,124.5207 162.0239,118.5812 C160.4558,123.5199 155.7864,125.9531 151.661,121.3621 C147.4038,126.8675 141.3676,125.1865 138.8394,119.3991 C135.2553,124.871 130.1945,124.3102 127.6552,118.3747 C124.3902,123.4451 120.0299,124.3594 116.6147,118.5269 C111.0915,123.8575 106.6454,122.5497 103.7122,115.768 C101.2613,120.9326 96.3796,120.373 93.4421,116.3095 C90.3181,122.2824 85.0067,120.9471 82.1798,116.003 C73.5106,113.5238 71.1472,106.2856 78.4565,100.0719 C68.7314,97.1441 67.892,88.8026 75.8957,83.1861 C69.714,77.5423 69.557,71.1007 77.9599,67.3591 C72.0664,62.3214 72.7113,54.8461 80.5676,52.1688 " fill="#FEFECE" style="stroke: #000000; stroke-width: 1.5;"/><text fill="#000000" font-family="sans-serif" font-size="14" font-weight="bold" lengthAdjust="spacingAndGlyphs" textLength="42" x="87" y="70.9951">MESS</text><text fill="#000000" font-family="sans-serif" font-size="14" lengthAdjust="spacingAndGlyphs" textLength="35" x="87" y="87.292">react</text><text fill="#000000" font-family="sans-serif" font-size="14" lengthAdjust="spacingAndGlyphs" textLength="125" x="87" y="103.5889">mobx/redux/saga/</text><!--entity user--><ellipse cx="21.5" cy="51" fill="#FEFECE" filter="url(#f1vdsbkpx0m88t)" rx="8" ry="8" style="stroke: #A80036; stroke-width: 2.0;"/><path d="M21.5,59 L21.5,86 M8.5,67 L34.5,67 M21.5,86 L8.5,101 M21.5,86 L34.5,101 " fill="none" filter="url(#f1vdsbkpx0m88t)" style="stroke: #A80036; stroke-width: 2.0;"/><text fill="#000000" font-family="sans-serif" font-size="14" lengthAdjust="spacingAndGlyphs" textLength="31" x="6" y="120.9951">user</text><!--entity backend--><rect fill="#FEFECE" filter="url(#f1vdsbkpx0m88t)" height="36.2969" style="stroke: #A80036; stroke-width: 1.5;" width="105" x="97" y="184"/><rect fill="#FEFECE" height="5" style="stroke: #A80036; stroke-width: 1.5;" width="10" x="92" y="189"/><rect fill="#FEFECE" height="5" style="stroke: #A80036; stroke-width: 1.5;" width="10" x="92" y="210.2969"/><text fill="#000000" font-family="sans-serif" font-size="14" lengthAdjust="spacingAndGlyphs" textLength="85" x="107" y="206.9951">backend API</text><!--link user to mess--><path d="M37.5,82.5 C47.1865,82.5 56.873,82.5 66.5596,82.5 " fill="none" id="user-&gt;mess" style="stroke: #A80036; stroke-width: 1.0;"/><polygon fill="#A80036" points="71.625,82.5,62.625,78.5,66.625,82.5,62.625,86.5,71.625,82.5" style="stroke: #A80036; stroke-width: 1.0;"/><!--link mess to backend--><path d="M149.5,122.2918 C149.5,140.9578 149.5,162.5598 149.5,178.563 " fill="none" id="mess-&gt;backend" style="stroke: #A80036; stroke-width: 1.0;"/><polygon fill="#A80036" points="149.5,183.7632,153.5,174.7632,149.5,178.7632,145.5,174.7632,149.5,183.7632" style="stroke: #A80036; stroke-width: 1.0;"/><!--
@startuml

actor user
component "backend API" as backend

component frontend {
    cloud "**MESS** \nreact\nmobx/redux/saga/" as mess
}

user -> mess
mess -down-> backend


@enduml

PlantUML version 1.2019.09(Mon Aug 26 18:19:51 CEST 2019)
(GPL source distribution)
Java Runtime: OpenJDK Runtime Environment
JVM: OpenJDK 64-Bit Server VM
Java Version: 11.0.4+11-post-Ubuntu-1ubuntu218.04.3
Operating System: Linux
OS Version: 5.0.0-36-generic
Default Encoding: UTF-8
Language: en
Country: US
--></g></svg>